<?xml version="1.0" encoding="UTF-8"?>
<svg version="1.1" xmlns="http://www.w3.org/2000/svg" width="194" height="258">
<path d="M0 0 C3.08179784 3.65311896 4.85285173 7.72615796 6.79296875 12.046875 C7.14386063 12.81807678 7.4947525 13.58927856 7.85627747 14.3838501 C8.97126697 16.8371844 10.07946308 19.29351894 11.1875 21.75 C11.9442147 23.41817148 12.70137124 25.08614261 13.45898438 26.75390625 C15.3111166 30.83363403 17.15716398 34.91606516 19 39 C23.25829482 32.61255777 23.91540117 25.52312458 23 18 C22.09870516 15.45450202 21.05393279 13.15429237 19.77734375 10.77734375 C19.52082031 10.19082031 19.26429687 9.60429687 19 9 C19.33 8.34 19.66 7.68 20 7 C25.98017406 10.47684538 29.33684347 14.51529108 32.3125 20.75 C34.1321205 29.35184237 32.9080517 36.8942222 29.9375 45.04296875 C29.62675537 45.93744217 29.31601074 46.83191559 28.99584961 47.75349426 C28.01308352 50.57069641 27.00708467 53.37891175 26 56.1875 C25.32395762 58.11208182 24.6494641 60.03720843 23.9765625 61.96289062 C22.33552299 66.6484076 20.67361448 71.32602462 19 76 C20.98 76 22.96 76 25 76 C25.16218018 75.37561035 25.32436035 74.7512207 25.49145508 74.10791016 C26.94013093 68.65424611 28.52572741 63.26791593 30.26171875 57.8984375 C30.85629883 56.04992187 30.85629883 56.04992187 31.46289062 54.1640625 C32.07734453 52.26288136 32.69190114 50.3616997 33.31958008 48.46484375 C36.57536206 38.59745629 38.7868136 30.74648385 35.125 20.75 C34.77695313 19.77546875 34.42890625 18.8009375 34.0703125 17.796875 C33.07167859 15.18730609 32.04909736 12.58966375 31 10 C38.24426058 12.82702852 42.90152954 18.40293478 46.4375 25.1875 C50.99813035 37.2774346 46.63059172 48.63128804 42.4375 60.0625 C41.63442391 62.28512339 40.83749667 64.50946886 40.05274963 66.7386322 C39.56788021 68.11280837 39.07207758 69.48319079 38.56382751 70.84889221 C37.64269032 73.43464943 36.96831702 75.56264615 37.16821289 78.32202148 C38.0071772 80.3652621 38.0071772 80.3652621 41 82 C41.14477783 81.14341797 41.14477783 81.14341797 41.29248047 80.26953125 C42.84165836 71.80540187 45.52276687 63.7789791 48.25390625 55.6328125 C51.23480353 46.35163051 52.33435917 38.70593354 49.1875 29.3125 C48.82527344 28.22195312 48.46304688 27.13140625 48.08984375 26.0078125 C46.85370427 22.59624477 45.53002507 19.2895539 44 16 C47.86335148 16.11707126 49.81395345 17.47637203 52.5 20.0625 C60.29144556 28.37902124 64.59066359 37.64415138 64.47045898 49.12939453 C63.3941386 57.98460123 60.01153441 66.41205277 57.125 74.8125 C56.46576434 76.769616 55.8081987 78.72729536 55.15234375 80.68554688 C54.22795895 83.44539518 53.30144019 86.20423433 52.3611145 88.95869446 C48.83442655 99.19718177 48.83442655 99.19718177 47.875 109.9375 C47.89304688 111.08089844 47.91109375 112.22429687 47.9296875 113.40234375 C47.95289063 114.25957031 47.97609375 115.11679688 48 116 C48.75796875 116.26683594 49.5159375 116.53367187 50.296875 116.80859375 C54.36647406 118.60227542 56.75627866 121.1842446 59 125 C59.73689694 128.01457838 59.98594872 130.90169212 60 134 C60.66 134 61.32 134 62 134 C62.17015625 134.71027344 62.3403125 135.42054688 62.515625 136.15234375 C62.75796875 137.07144531 63.0003125 137.99054688 63.25 138.9375 C63.48203125 139.85402344 63.7140625 140.77054688 63.953125 141.71484375 C64.76632566 144.19151441 64.76632566 144.19151441 67.109375 144.81640625 C67.73328125 144.87699219 68.3571875 144.93757812 69 145 C69.09482666 144.34032227 69.18965332 143.68064453 69.28735352 143.00097656 C70.20903652 139.1197407 71.77990907 135.61112422 73.40234375 131.984375 C73.75128693 131.19342438 74.1002301 130.40247375 74.45974731 129.58755493 C75.614415 126.97298297 76.77602472 124.36155403 77.9375 121.75 C78.75305975 119.90599911 79.56807369 118.06175674 80.38256836 116.21728516 C82.07678643 112.3818559 83.77335593 108.54748015 85.47167969 104.71386719 C88.98231716 96.78535639 92.46806378 88.84594348 95.95199585 80.90567017 C97.06552306 78.3681109 98.17979695 75.83088054 99.29418945 73.29370117 C105.27980712 59.66208842 111.23279116 46.01633291 117.16821289 32.36279297 C121.72591072 21.88476854 126.34515228 11.43522126 131 1 C134.18555252 3.97322435 135.85914314 7.37993014 137.72265625 11.265625 C138.06880478 11.97724792 138.41495331 12.68887085 138.77159119 13.42205811 C139.50158198 14.92686559 140.22844659 16.43319308 140.95239258 17.94091797 C142.05381844 20.2319419 143.16771356 22.51657797 144.28320312 24.80078125 C144.99294786 26.26786156 145.70195608 27.73529846 146.41015625 29.203125 C146.74040298 29.87941956 147.07064972 30.55571411 147.41090393 31.25250244 C152.50796451 41.93051496 152.50796451 41.93051496 151.52333069 45.94198608 C150.63774951 48.15903547 149.62100619 50.25476351 148.53125 52.37890625 C147.95170059 53.5730439 147.95170059 53.5730439 147.36044312 54.79130554 C146.09319531 57.39181972 144.79666023 59.97654456 143.5 62.5625 C142.61109146 64.37547603 141.72455605 66.18961744 140.84033203 68.00488281 C139.06366563 71.64885565 137.27797618 75.2881696 135.48535156 78.92431641 C132.17840588 85.6521266 129.01899607 92.44494941 125.875 99.25 C124.76013689 101.64891287 123.64423861 104.04734491 122.52734375 106.4453125 C122.24764236 107.04591995 121.96794098 107.6465274 121.67976379 108.26533508 C117.96463973 116.23375877 114.19748075 124.17767765 110.4375 132.125 C101.49785911 151.02438403 92.62433606 169.95419761 84 189 C82.02 188.01 82.02 188.01 80 187 C77.525 189.475 77.525 189.475 75 192 C76.32 192.33 77.64 192.66 79 193 C79 194.65 79 196.3 79 198 C77.68 198.33 76.36 198.66 75 199 C75.103125 199.99 75.20625 200.98 75.3125 202 C75.34679796 206.25294699 73.51181887 208.62110108 71.1640625 212.03125 C69.47993528 214.87957255 69.40687491 217.74500074 69 221 C67.83125282 223.76116521 66.46123549 226.38336901 65 229 C62.16125415 226.16125415 61.0008013 222.82062658 60 219 C60.06267961 217.0255922 60.12559138 215.05094525 60.2265625 213.078125 C59.84929753 209.61769461 57.97785946 207.0385809 56.09375 204.17578125 C54.80554241 201.6131683 54.80168262 199.83098062 55 197 C54.34 197 53.68 197 53 197 C52.34 196.34 51.68 195.68 51 195 C50.01 195.66 49.02 196.32 48 197 C47.7525 196.21625 47.505 195.4325 47.25 194.625 C45.75937663 191.49469091 45.00580249 191.45996121 42 190 C36.7682434 184.90239101 34.5659967 178.74802536 32 172 C30.5459375 172.0309375 30.5459375 172.0309375 29.0625 172.0625 C26 172 26 172 25 171 C24.8125 168.0625 24.8125 168.0625 25 165 C27 163 27 163 30.125 162.875 C31.07375 162.91625 32.0225 162.9575 33 163 C33 162.34 33 161.68 33 161 C32.484375 161.165 31.96875 161.33 31.4375 161.5 C27.08463831 162.39289471 23.39537763 162.64901285 19.3125 160.75 C12.77457795 155.80238332 12.77457795 155.80238332 12 151 C11.67 150.01 11.34 149.02 11 148 C12.65 148.33 14.3 148.66 16 149 C16.33 147.68 16.66 146.36 17 145 C19 145 19 145 20.625 146.5 C21.305625 147.2425 21.305625 147.2425 22 148 C21.7834375 147.45472656 21.566875 146.90945312 21.34375 146.34765625 C18.45520499 138.52451351 17.77260178 131.86678317 21 124 C19.68 123.67 18.36 123.34 17 123 C17.2475 121.4221875 17.2475 121.4221875 17.5 119.8125 C17.44603686 116.0573534 17.44603686 116.0573534 15.359375 114.6328125 C13.93006044 113.82286758 12.49076372 113.03033435 11.04296875 112.25390625 C7.13280428 109.85397739 5.40876877 106.2263063 4 102 C4.12667588 98.96414692 4.32175958 95.94000032 4.55078125 92.91015625 C3.86567593 88.04639435 1.96031281 84.5731135 -0.31811523 80.25805664 C-3.09737291 74.87422826 -5.36194353 69.2785931 -7.6875 63.6875 C-8.62884166 61.44137918 -9.57024609 59.19528466 -10.51171875 56.94921875 C-10.94250732 55.91385986 -11.3732959 54.87850098 -11.81713867 53.81176758 C-12.79715255 51.48218659 -13.81142588 49.17376324 -14.84375 46.8671875 C-16.17284449 43.57139238 -16.10813184 42.32439551 -15 39 C-14.649375 37.906875 -14.29875 36.81375 -13.9375 35.6875 C-13.628125 34.800625 -13.31875 33.91375 -13 33 C-11.35 33.66 -9.7 34.32 -8 35 C-8.495 37.475 -8.495 37.475 -9 40 C-7.68 40.33 -6.36 40.66 -5 41 C-5.33 42.32 -5.66 43.64 -6 45 C-5.01 45.33 -4.02 45.66 -3 46 C-3.061875 46.78375 -3.12375 47.5675 -3.1875 48.375 C-3.125625 49.24125 -3.06375 50.1075 -3 51 C-2.01 51.66 -1.02 52.32 0 53 C0 54.66666667 0 56.33333333 0 58 C0.99 58.66 1.98 59.32 3 60 C2.67 61.98 2.34 63.96 2 66 C3.32 66.33 4.64 66.66 6 67 C5.34 68.98 4.68 70.96 4 73 C5.32 73.33 6.64 73.66 8 74 C8.78282648 72.20800528 8.78282648 72.20800528 9 70 C8.57396484 69.43643799 8.14792969 68.87287598 7.70898438 68.29223633 C5.57375313 65.42828117 4.30906352 62.35693081 2.96875 59.07421875 C2.69156128 58.40840286 2.41437256 57.74258698 2.12878418 57.05659485 C1.24718188 54.93573191 0.3734253 52.8117417 -0.5 50.6875 C-1.08670982 49.27126479 -1.67394439 47.85524685 -2.26171875 46.43945312 C-3.09468114 44.43270037 -3.92692131 42.4256871 -4.75500488 40.41691589 C-6.27056337 36.73297274 -6.27056337 36.73297274 -7.86079407 33.08094788 C-9.56468886 29.27132354 -10.37851947 27.13704028 -9.1875 23.0625 C-8.97480469 22.29035156 -8.76210938 21.51820312 -8.54296875 20.72265625 C-8.36378906 20.15417969 -8.18460938 19.58570312 -8 19 C-6.35 18.67 -4.7 18.34 -3 18 C-3.03480469 17.11957031 -3.06960937 16.23914063 -3.10546875 15.33203125 C-3.14607422 13.58986328 -3.14607422 13.58986328 -3.1875 11.8125 C-3.22230469 10.66394531 -3.25710937 9.51539063 -3.29296875 8.33203125 C-2.97622579 4.72960801 -2.08533398 2.90633161 0 0 Z M-3 20 C-3 21.32 -3 22.64 -3 24 C-2.01 23.67 -1.02 23.34 0 23 C-0.99 22.01 -1.98 21.02 -3 20 Z M0 27 C-0.33 27.66 -0.66 28.32 -1 29 C-0.01 29.99 0.98 30.98 2 32 C2.33 31.34 2.66 30.68 3 30 C2.01 29.01 1.02 28.02 0 27 Z M3 34 C3 34.99 3 35.98 3 37 C3.66 37 4.32 37 5 37 C4.67 36.01 4.34 35.02 4 34 C3.67 34 3.34 34 3 34 Z M5 40 C5.33 41.32 5.66 42.64 6 44 C6.66 44 7.32 44 8 44 C7.67 42.68 7.34 41.36 7 40 C6.34 40 5.68 40 5 40 Z M8 46 C7.67 46.99 7.34 47.98 7 49 C7.33 49.66 7.66 50.32 8 51 C8.99 50.67 9.98 50.34 11 50 C10.34 48.68 9.68 47.36 9 46 C8.67 46 8.34 46 8 46 Z M11 53 C10.01 54.485 10.01 54.485 9 56 C9.99 56.33 10.98 56.66 12 57 C11.67 55.68 11.34 54.36 11 53 Z M10 61 C10 63.31 10 65.62 10 68 C11.9451 65.08235 12.45276317 63.37462715 13 60 C11.7763932 59.9254644 11.7763932 59.9254644 10 61 Z M5 77 C5 78.65 5 80.3 5 82 C7.18490007 79.32357511 7.18490007 79.32357511 7 77 C6.34 77 5.68 77 5 77 Z M16 84 C16 84.66 16 85.32 16 86 C17.98 86.99 17.98 86.99 20 88 C20.33 86.02 20.66 84.04 21 82 C19.15953612 82 17.60370406 83.17228177 16 84 Z M32 84 C31.67 87.3 31.34 90.6 31 94 C34.66980204 96.91171789 34.66980204 96.91171789 39 98 C39.50432107 92.7046288 38.28757779 90.13295494 35 86 C34.01 85.34 33.02 84.68 32 84 Z M10 96 C10.4749981 100.98748002 11.89227695 104.06964437 15 108 C15.99 108.33 16.98 108.66 18 109 C19.4783226 106.04335481 19.06032783 103.25770263 19 100 C17.329375 99.01 17.329375 99.01 15.625 98 C14.99851562 97.62875 14.37203125 97.2575 13.7265625 96.875 C12.02527333 95.84931652 12.02527333 95.84931652 10 96 Z M30 107 C30.33 107.99 30.66 108.98 31 110 C31.66 109.34 32.32 108.68 33 108 C32.01 107.67 31.02 107.34 30 107 Z M38 112 C37.67 112.66 37.34 113.32 37 114 C38.32 113.67 39.64 113.34 41 113 C40.01 112.67 39.02 112.34 38 112 Z M23 117 C23.33 117.99 23.66 118.98 24 120 C24.99 119.01 25.98 118.02 27 117 C25.68 117 24.36 117 23 117 Z M31 122 C31 122.66 31 123.32 31 124 C33.475 124.99 33.475 124.99 36 126 C36 124.02 36 122.04 36 120 C34.15953612 120 32.60370406 121.17228177 31 122 Z M47 122 C46.71671178 125.70792809 46.54730027 129.30204313 47 133 C49.45694253 135.26297338 50.6796254 136 54 136 C54.50432107 130.7046288 53.28757779 128.13295494 50 124 C49.01 123.34 48.02 122.68 47 122 Z M25 133 C26.0321369 139.28665206 26.74070244 142.92404439 32 147 C32.66 147 33.32 147 34 147 C34 144.03 34 141.06 34 138 C31.03 136.35 28.06 134.7 25 133 Z M45 145 C45.33 145.99 45.66 146.98 46 148 C46.66 147.34 47.32 146.68 48 146 C47.01 145.67 46.02 145.34 45 145 Z M53 150 C54.98 150.99 54.98 150.99 57 152 C56.67 151.34 56.34 150.68 56 150 C55.01 150 54.02 150 53 150 Z M53 155 C52.67 155.66 52.34 156.32 52 157 C54.31 157 56.62 157 59 157 C56.18490007 154.7226499 56.18490007 154.7226499 53 155 Z M42 157 C42.99 158.485 42.99 158.485 44 160 C45.32 159.67 46.64 159.34 48 159 C47.34 159 46.68 159 46 159 C46 158.34 46 157.68 46 157 C44.68 157 43.36 157 42 157 Z M66 157 C67 159 67 159 67 159 Z M60 158 C60.33 158.70125 60.66 159.4025 61 160.125 C62.09044562 163.26003116 62.15322643 165.70563182 62 169 C62.66 169 63.32 169 64 169 C65.14947895 165.44706507 65.0868937 164.20023331 63.5625 160.6875 C63.046875 159.800625 62.53125 158.91375 62 158 C61.34 158 60.68 158 60 158 Z M74 158 C73.67 158.66 73.34 159.32 73 160 C74.32 160.33 75.64 160.66 77 161 C77 160.34 77 159.68 77 159 C76.01 158.67 75.02 158.34 74 158 Z M39 159 C39.33 159.99 39.66 160.98 40 162 C40.66 161.67 41.32 161.34 42 161 C41.01 160.34 40.02 159.68 39 159 Z M52 160 C52 160.33 52 160.66 52 161 C53.65 161 55.3 161 57 161 C57 160.67 57 160.34 57 160 C55.35 160 53.7 160 52 160 Z M72 160 C72 160.66 72 161.32 72 162 C71.01 162 70.02 162 69 162 C69.34227572 164.97065509 69.34227572 164.97065509 70 168 C70.66 168.33 71.32 168.66 72 169 C72 168.34 72 167.68 72 167 C74.875 167.3125 74.875 167.3125 78 168 C78.99 169.485 78.99 169.485 80 171 C80 169.02 80 167.04 80 165 C79.05125 164.731875 78.1025 164.46375 77.125 164.1875 C74 163 74 163 72 160 Z M43 163 C42.67 164.32 42.34 165.64 42 167 C43.32 167 44.64 167 46 167 C46.66 165.68 47.32 164.36 48 163 C46.35 163 44.7 163 43 163 Z M37 168 C37.33 169.32 37.66 170.64 38 172 C38.33 171.34 38.66 170.68 39 170 C38.34 169.34 37.68 168.68 37 168 Z M66 170 C66 171.32 66 172.64 66 174 C66.99 173.67 67.98 173.34 69 173 C68.01 172.01 67.02 171.02 66 170 Z M55 171 C55 171.66 55 172.32 55 173 C55.66 173 56.32 173 57 173 C57 172.34 57 171.68 57 171 C56.34 171 55.68 171 55 171 Z M62 172 C61.01 173.485 61.01 173.485 60 175 C61.32 174.34 62.64 173.68 64 173 C63.34 172.67 62.68 172.34 62 172 Z M78 173 C79 175 79 175 79 175 Z M69 174 C69 174.99 69 175.98 69 177 C71.31 177.33 73.62 177.66 76 178 C76.66 177.01 77.32 176.02 78 175 C77.071875 175.020625 76.14375 175.04125 75.1875 175.0625 C72 175 72 175 69 174 Z M40 176 C39.67 176.66 39.34 177.32 39 178 C39.66 178.66 40.32 179.32 41 180 C40.67 178.68 40.34 177.36 40 176 Z M51 177 C51 177.33 51 177.66 51 178 C52.65 178 54.3 178 56 178 C56 177.67 56 177.34 56 177 C54.35 177 52.7 177 51 177 Z M41 180 C42 182 42 182 42 182 Z M46 181 C46.50603992 183.16874252 46.99983813 184.99967627 48 187 C49.32 187 50.64 187 52 187 C52.99 188.485 52.99 188.485 54 190 C57.08365871 190.2502157 57.08365871 190.2502157 60 190 C59.67 189.01 59.34 188.02 59 187 C56.81862203 185.97549761 56.81862203 185.97549761 54 185 C51.31110527 183.71032642 48.65531129 182.35730552 46 181 Z M59 196 C59 196.66 59 197.32 59 198 C61.97 197.34 64.94 196.68 68 196 C67.67 195.34 67.34 194.68 67 194 C63.23312136 194 62.08809695 194.23537317 59 196 Z M69 196 C70.485 196.99 70.485 196.99 72 198 C72 197.34 72 196.68 72 196 C71.01 196 70.02 196 69 196 Z M70 202 C69.67 202.99 69.34 203.98 69 205 C69.66 205 70.32 205 71 205 C70.67 204.01 70.34 203.02 70 202 Z M61 204 C61.99 204.99 62.98 205.98 64 207 C64.66 206.34 65.32 205.68 66 205 C64.35 204.67 62.7 204.34 61 204 Z " fill="#FEFEFE" transform="translate(35,15)"/>
</svg>
